<mxfile host="Electron" agent="Mozilla/5.0 (Windows NT 10.0; Win64; x64) AppleWebKit/537.36 (KHTML, like Gecko) draw.io/24.7.17 Chrome/128.0.6613.36 Electron/32.0.1 Safari/537.36" version="24.7.17">
  <diagram name="Страница — 1" id="SiKyaF34HX2DFsKMwfc-">
    <mxGraphModel dx="2051" dy="1144" grid="1" gridSize="10" guides="1" tooltips="1" connect="1" arrows="1" fold="1" page="1" pageScale="1" pageWidth="827" pageHeight="1169" math="0" shadow="0">
      <root>
        <mxCell id="0" />
        <mxCell id="1" parent="0" />
        <mxCell id="wmsQ8IffGXWZt_zpJrCV-8" style="rounded=0;orthogonalLoop=1;jettySize=auto;html=1;entryX=0.5;entryY=1;entryDx=0;entryDy=0;endArrow=none;endFill=0;exitX=0.25;exitY=0.1;exitDx=0;exitDy=0;exitPerimeter=0;" edge="1" parent="1" source="wmsQ8IffGXWZt_zpJrCV-1" target="wmsQ8IffGXWZt_zpJrCV-6">
          <mxGeometry relative="1" as="geometry" />
        </mxCell>
        <mxCell id="wmsQ8IffGXWZt_zpJrCV-34" style="rounded=0;orthogonalLoop=1;jettySize=auto;html=1;entryX=0.5;entryY=1;entryDx=0;entryDy=0;endArrow=none;endFill=0;exitX=0.5;exitY=0;exitDx=0;exitDy=0;exitPerimeter=0;" edge="1" parent="1" source="wmsQ8IffGXWZt_zpJrCV-1" target="wmsQ8IffGXWZt_zpJrCV-32">
          <mxGeometry relative="1" as="geometry" />
        </mxCell>
        <mxCell id="wmsQ8IffGXWZt_zpJrCV-1" value="Тренер" style="shape=umlActor;verticalLabelPosition=bottom;verticalAlign=top;html=1;outlineConnect=0;" vertex="1" parent="1">
          <mxGeometry x="530" y="890" width="30" height="50" as="geometry" />
        </mxCell>
        <mxCell id="wmsQ8IffGXWZt_zpJrCV-18" style="rounded=0;orthogonalLoop=1;jettySize=auto;html=1;exitX=0.75;exitY=0.1;exitDx=0;exitDy=0;exitPerimeter=0;entryX=0;entryY=1;entryDx=0;entryDy=0;endArrow=none;endFill=0;" edge="1" parent="1" source="wmsQ8IffGXWZt_zpJrCV-2" target="wmsQ8IffGXWZt_zpJrCV-14">
          <mxGeometry relative="1" as="geometry" />
        </mxCell>
        <mxCell id="wmsQ8IffGXWZt_zpJrCV-20" style="rounded=0;orthogonalLoop=1;jettySize=auto;html=1;exitX=0.75;exitY=0.1;exitDx=0;exitDy=0;exitPerimeter=0;entryX=0;entryY=0.5;entryDx=0;entryDy=0;endArrow=none;endFill=0;" edge="1" parent="1" source="wmsQ8IffGXWZt_zpJrCV-2" target="wmsQ8IffGXWZt_zpJrCV-15">
          <mxGeometry relative="1" as="geometry" />
        </mxCell>
        <mxCell id="wmsQ8IffGXWZt_zpJrCV-23" style="rounded=0;orthogonalLoop=1;jettySize=auto;html=1;exitX=0.75;exitY=0.1;exitDx=0;exitDy=0;exitPerimeter=0;entryX=0;entryY=0.5;entryDx=0;entryDy=0;endArrow=none;endFill=0;" edge="1" parent="1" source="wmsQ8IffGXWZt_zpJrCV-2" target="wmsQ8IffGXWZt_zpJrCV-16">
          <mxGeometry relative="1" as="geometry" />
        </mxCell>
        <mxCell id="wmsQ8IffGXWZt_zpJrCV-74" style="rounded=0;orthogonalLoop=1;jettySize=auto;html=1;exitX=0.25;exitY=0.1;exitDx=0;exitDy=0;exitPerimeter=0;entryX=0;entryY=0;entryDx=0;entryDy=0;endArrow=none;endFill=0;" edge="1" parent="1" source="wmsQ8IffGXWZt_zpJrCV-2" target="wmsQ8IffGXWZt_zpJrCV-72">
          <mxGeometry relative="1" as="geometry" />
        </mxCell>
        <mxCell id="wmsQ8IffGXWZt_zpJrCV-2" value="Клиент" style="shape=umlActor;verticalLabelPosition=bottom;verticalAlign=top;html=1;outlineConnect=0;" vertex="1" parent="1">
          <mxGeometry x="40" y="410" width="30" height="50" as="geometry" />
        </mxCell>
        <mxCell id="wmsQ8IffGXWZt_zpJrCV-9" style="rounded=0;orthogonalLoop=1;jettySize=auto;html=1;exitX=0.25;exitY=0.1;exitDx=0;exitDy=0;exitPerimeter=0;endArrow=none;endFill=0;" edge="1" parent="1" source="wmsQ8IffGXWZt_zpJrCV-3" target="wmsQ8IffGXWZt_zpJrCV-5">
          <mxGeometry relative="1" as="geometry" />
        </mxCell>
        <mxCell id="wmsQ8IffGXWZt_zpJrCV-3" value="Администратор" style="shape=umlActor;verticalLabelPosition=bottom;verticalAlign=top;html=1;outlineConnect=0;" vertex="1" parent="1">
          <mxGeometry x="1050" y="150" width="30" height="60" as="geometry" />
        </mxCell>
        <mxCell id="wmsQ8IffGXWZt_zpJrCV-4" value="Посещение&lt;div&gt;спортзала&lt;/div&gt;" style="ellipse;whiteSpace=wrap;html=1;" vertex="1" parent="1">
          <mxGeometry x="485" y="430" width="120" height="80" as="geometry" />
        </mxCell>
        <mxCell id="wmsQ8IffGXWZt_zpJrCV-5" value="Составление&lt;div&gt;расписание&lt;/div&gt;" style="ellipse;whiteSpace=wrap;html=1;" vertex="1" parent="1">
          <mxGeometry x="840" y="120" width="120" height="80" as="geometry" />
        </mxCell>
        <mxCell id="wmsQ8IffGXWZt_zpJrCV-6" value="Проводение&lt;div&gt;индивидуальных&lt;/div&gt;&lt;div&gt;занятий&lt;/div&gt;" style="ellipse;whiteSpace=wrap;html=1;" vertex="1" parent="1">
          <mxGeometry x="100" y="660" width="120" height="80" as="geometry" />
        </mxCell>
        <mxCell id="wmsQ8IffGXWZt_zpJrCV-28" style="rounded=0;orthogonalLoop=1;jettySize=auto;html=1;exitX=0.75;exitY=0.1;exitDx=0;exitDy=0;exitPerimeter=0;endArrow=none;endFill=0;" edge="1" parent="1" source="wmsQ8IffGXWZt_zpJrCV-39" target="wmsQ8IffGXWZt_zpJrCV-27">
          <mxGeometry relative="1" as="geometry" />
        </mxCell>
        <mxCell id="wmsQ8IffGXWZt_zpJrCV-12" value="Финанс отдел" style="shape=umlActor;verticalLabelPosition=bottom;verticalAlign=top;html=1;outlineConnect=0;" vertex="1" parent="1">
          <mxGeometry x="530" y="100" width="30" height="50" as="geometry" />
        </mxCell>
        <mxCell id="wmsQ8IffGXWZt_zpJrCV-14" value="Оплата&lt;div&gt;абонимента&lt;/div&gt;" style="ellipse;whiteSpace=wrap;html=1;" vertex="1" parent="1">
          <mxGeometry x="180" y="140" width="120" height="80" as="geometry" />
        </mxCell>
        <mxCell id="wmsQ8IffGXWZt_zpJrCV-15" value="Приобретение&lt;div&gt;доп. услуг&lt;/div&gt;" style="ellipse;whiteSpace=wrap;html=1;" vertex="1" parent="1">
          <mxGeometry x="264" y="235" width="120" height="80" as="geometry" />
        </mxCell>
        <mxCell id="wmsQ8IffGXWZt_zpJrCV-16" value="Оплата&lt;div&gt;индивидуальных&lt;/div&gt;&lt;div&gt;занятий&lt;/div&gt;" style="ellipse;whiteSpace=wrap;html=1;" vertex="1" parent="1">
          <mxGeometry x="339" y="330" width="120" height="80" as="geometry" />
        </mxCell>
        <mxCell id="wmsQ8IffGXWZt_zpJrCV-17" style="rounded=0;orthogonalLoop=1;jettySize=auto;html=1;exitX=0.5;exitY=0;exitDx=0;exitDy=0;exitPerimeter=0;entryX=0;entryY=0.5;entryDx=0;entryDy=0;endArrow=none;endFill=0;" edge="1" parent="1" source="wmsQ8IffGXWZt_zpJrCV-2" target="wmsQ8IffGXWZt_zpJrCV-4">
          <mxGeometry relative="1" as="geometry" />
        </mxCell>
        <mxCell id="wmsQ8IffGXWZt_zpJrCV-19" style="rounded=0;orthogonalLoop=1;jettySize=auto;html=1;entryX=0.25;entryY=0.1;entryDx=0;entryDy=0;entryPerimeter=0;exitX=0.5;exitY=0;exitDx=0;exitDy=0;endArrow=none;endFill=0;" edge="1" parent="1" source="wmsQ8IffGXWZt_zpJrCV-14" target="wmsQ8IffGXWZt_zpJrCV-26">
          <mxGeometry relative="1" as="geometry">
            <mxPoint x="240" y="130" as="sourcePoint" />
          </mxGeometry>
        </mxCell>
        <mxCell id="wmsQ8IffGXWZt_zpJrCV-21" style="rounded=0;orthogonalLoop=1;jettySize=auto;html=1;entryX=0.25;entryY=0.1;entryDx=0;entryDy=0;entryPerimeter=0;endArrow=none;endFill=0;" edge="1" parent="1" source="wmsQ8IffGXWZt_zpJrCV-15" target="wmsQ8IffGXWZt_zpJrCV-12">
          <mxGeometry relative="1" as="geometry" />
        </mxCell>
        <mxCell id="wmsQ8IffGXWZt_zpJrCV-24" style="rounded=0;orthogonalLoop=1;jettySize=auto;html=1;exitX=0.5;exitY=0;exitDx=0;exitDy=0;entryX=0.25;entryY=0.1;entryDx=0;entryDy=0;entryPerimeter=0;endArrow=none;endFill=0;" edge="1" parent="1" source="wmsQ8IffGXWZt_zpJrCV-16" target="wmsQ8IffGXWZt_zpJrCV-26">
          <mxGeometry relative="1" as="geometry" />
        </mxCell>
        <mxCell id="wmsQ8IffGXWZt_zpJrCV-25" style="rounded=0;orthogonalLoop=1;jettySize=auto;html=1;entryX=0.75;entryY=0.1;entryDx=0;entryDy=0;entryPerimeter=0;endArrow=none;endFill=0;" edge="1" parent="1" source="wmsQ8IffGXWZt_zpJrCV-6" target="wmsQ8IffGXWZt_zpJrCV-2">
          <mxGeometry relative="1" as="geometry" />
        </mxCell>
        <mxCell id="wmsQ8IffGXWZt_zpJrCV-26" value="Доход" style="shape=umlActor;verticalLabelPosition=bottom;verticalAlign=top;html=1;outlineConnect=0;" vertex="1" parent="1">
          <mxGeometry x="354" y="120" width="30" height="50" as="geometry" />
        </mxCell>
        <mxCell id="wmsQ8IffGXWZt_zpJrCV-27" value="Выплата&lt;div&gt;&lt;span style=&quot;background-color: initial;&quot;&gt;зарплаты&lt;/span&gt;&lt;/div&gt;" style="ellipse;whiteSpace=wrap;html=1;" vertex="1" parent="1">
          <mxGeometry x="660" y="290" width="120" height="80" as="geometry" />
        </mxCell>
        <mxCell id="wmsQ8IffGXWZt_zpJrCV-29" style="rounded=0;orthogonalLoop=1;jettySize=auto;html=1;entryX=0.5;entryY=0;entryDx=0;entryDy=0;entryPerimeter=0;endArrow=none;endFill=0;" edge="1" parent="1" source="wmsQ8IffGXWZt_zpJrCV-27" target="wmsQ8IffGXWZt_zpJrCV-1">
          <mxGeometry relative="1" as="geometry" />
        </mxCell>
        <mxCell id="wmsQ8IffGXWZt_zpJrCV-30" value="Посещение групповых&lt;div&gt;тренировок&lt;/div&gt;" style="ellipse;whiteSpace=wrap;html=1;" vertex="1" parent="1">
          <mxGeometry x="130" y="480" width="120" height="80" as="geometry" />
        </mxCell>
        <mxCell id="wmsQ8IffGXWZt_zpJrCV-31" value="Расписание&lt;div&gt;тренировок&lt;/div&gt;" style="shape=umlActor;verticalLabelPosition=bottom;verticalAlign=top;html=1;outlineConnect=0;" vertex="1" parent="1">
          <mxGeometry x="429" y="660" width="30" height="50" as="geometry" />
        </mxCell>
        <mxCell id="wmsQ8IffGXWZt_zpJrCV-32" value="Проведение групповых&lt;div&gt;тренировок&lt;/div&gt;" style="ellipse;whiteSpace=wrap;html=1;" vertex="1" parent="1">
          <mxGeometry x="459" y="750" width="120" height="80" as="geometry" />
        </mxCell>
        <mxCell id="wmsQ8IffGXWZt_zpJrCV-35" style="rounded=0;orthogonalLoop=1;jettySize=auto;html=1;entryX=0.75;entryY=0.1;entryDx=0;entryDy=0;entryPerimeter=0;endArrow=none;endFill=0;" edge="1" parent="1" source="wmsQ8IffGXWZt_zpJrCV-32" target="wmsQ8IffGXWZt_zpJrCV-31">
          <mxGeometry relative="1" as="geometry" />
        </mxCell>
        <mxCell id="wmsQ8IffGXWZt_zpJrCV-36" style="rounded=0;orthogonalLoop=1;jettySize=auto;html=1;entryX=0.25;entryY=0.1;entryDx=0;entryDy=0;entryPerimeter=0;endArrow=none;endFill=0;" edge="1" parent="1" source="wmsQ8IffGXWZt_zpJrCV-30" target="wmsQ8IffGXWZt_zpJrCV-57">
          <mxGeometry relative="1" as="geometry" />
        </mxCell>
        <mxCell id="wmsQ8IffGXWZt_zpJrCV-37" style="rounded=0;orthogonalLoop=1;jettySize=auto;html=1;entryX=0.75;entryY=0.1;entryDx=0;entryDy=0;entryPerimeter=0;endArrow=none;endFill=0;" edge="1" parent="1" source="wmsQ8IffGXWZt_zpJrCV-30" target="wmsQ8IffGXWZt_zpJrCV-2">
          <mxGeometry relative="1" as="geometry" />
        </mxCell>
        <mxCell id="wmsQ8IffGXWZt_zpJrCV-39" value="Расход" style="shape=umlActor;verticalLabelPosition=bottom;verticalAlign=top;html=1;outlineConnect=0;" vertex="1" parent="1">
          <mxGeometry x="680" y="155" width="30" height="50" as="geometry" />
        </mxCell>
        <mxCell id="wmsQ8IffGXWZt_zpJrCV-40" style="rounded=0;orthogonalLoop=1;jettySize=auto;html=1;exitX=0.75;exitY=0.1;exitDx=0;exitDy=0;exitPerimeter=0;entryX=0;entryY=0.5;entryDx=0;entryDy=0;endArrow=none;endFill=0;" edge="1" parent="1" source="wmsQ8IffGXWZt_zpJrCV-39" target="wmsQ8IffGXWZt_zpJrCV-41">
          <mxGeometry relative="1" as="geometry" />
        </mxCell>
        <mxCell id="wmsQ8IffGXWZt_zpJrCV-41" value="Выплата&lt;div&gt;зарплаты&lt;/div&gt;" style="ellipse;whiteSpace=wrap;html=1;" vertex="1" parent="1">
          <mxGeometry x="770" y="10" width="120" height="80" as="geometry" />
        </mxCell>
        <mxCell id="wmsQ8IffGXWZt_zpJrCV-42" style="rounded=0;orthogonalLoop=1;jettySize=auto;html=1;entryX=0.25;entryY=0.1;entryDx=0;entryDy=0;entryPerimeter=0;endArrow=none;endFill=0;" edge="1" parent="1" source="wmsQ8IffGXWZt_zpJrCV-41" target="wmsQ8IffGXWZt_zpJrCV-3">
          <mxGeometry relative="1" as="geometry" />
        </mxCell>
        <mxCell id="wmsQ8IffGXWZt_zpJrCV-45" value="Получить&lt;div&gt;деньги&lt;/div&gt;" style="ellipse;whiteSpace=wrap;html=1;" vertex="1" parent="1">
          <mxGeometry x="390" y="20" width="120" height="80" as="geometry" />
        </mxCell>
        <mxCell id="wmsQ8IffGXWZt_zpJrCV-46" value="Потратить&lt;div&gt;деньги&lt;/div&gt;" style="ellipse;whiteSpace=wrap;html=1;" vertex="1" parent="1">
          <mxGeometry x="590" y="10" width="120" height="80" as="geometry" />
        </mxCell>
        <mxCell id="wmsQ8IffGXWZt_zpJrCV-47" style="rounded=0;orthogonalLoop=1;jettySize=auto;html=1;exitX=0.75;exitY=0.1;exitDx=0;exitDy=0;exitPerimeter=0;entryX=0;entryY=0.5;entryDx=0;entryDy=0;endArrow=none;endFill=0;" edge="1" parent="1" source="wmsQ8IffGXWZt_zpJrCV-26" target="wmsQ8IffGXWZt_zpJrCV-45">
          <mxGeometry relative="1" as="geometry" />
        </mxCell>
        <mxCell id="wmsQ8IffGXWZt_zpJrCV-48" style="rounded=0;orthogonalLoop=1;jettySize=auto;html=1;entryX=0.5;entryY=0;entryDx=0;entryDy=0;entryPerimeter=0;endArrow=none;endFill=0;" edge="1" parent="1" source="wmsQ8IffGXWZt_zpJrCV-45" target="wmsQ8IffGXWZt_zpJrCV-12">
          <mxGeometry relative="1" as="geometry" />
        </mxCell>
        <mxCell id="wmsQ8IffGXWZt_zpJrCV-49" style="rounded=0;orthogonalLoop=1;jettySize=auto;html=1;entryX=0.75;entryY=0.1;entryDx=0;entryDy=0;entryPerimeter=0;endArrow=none;endFill=0;" edge="1" parent="1" source="wmsQ8IffGXWZt_zpJrCV-46" target="wmsQ8IffGXWZt_zpJrCV-12">
          <mxGeometry relative="1" as="geometry" />
        </mxCell>
        <mxCell id="wmsQ8IffGXWZt_zpJrCV-50" style="rounded=0;orthogonalLoop=1;jettySize=auto;html=1;exitX=1;exitY=0.5;exitDx=0;exitDy=0;entryX=0.5;entryY=0;entryDx=0;entryDy=0;entryPerimeter=0;endArrow=none;endFill=0;" edge="1" parent="1" source="wmsQ8IffGXWZt_zpJrCV-46" target="wmsQ8IffGXWZt_zpJrCV-39">
          <mxGeometry relative="1" as="geometry" />
        </mxCell>
        <mxCell id="wmsQ8IffGXWZt_zpJrCV-60" style="rounded=0;orthogonalLoop=1;jettySize=auto;html=1;exitX=0.25;exitY=0.1;exitDx=0;exitDy=0;exitPerimeter=0;entryX=1;entryY=0.5;entryDx=0;entryDy=0;endArrow=none;endFill=0;" edge="1" parent="1" source="wmsQ8IffGXWZt_zpJrCV-51" target="wmsQ8IffGXWZt_zpJrCV-61">
          <mxGeometry relative="1" as="geometry">
            <mxPoint x="680" y="590" as="targetPoint" />
          </mxGeometry>
        </mxCell>
        <mxCell id="wmsQ8IffGXWZt_zpJrCV-51" value="Зал" style="shape=umlActor;verticalLabelPosition=bottom;verticalAlign=top;html=1;outlineConnect=0;" vertex="1" parent="1">
          <mxGeometry x="750" y="560" width="30" height="50" as="geometry" />
        </mxCell>
        <mxCell id="wmsQ8IffGXWZt_zpJrCV-54" style="rounded=0;orthogonalLoop=1;jettySize=auto;html=1;exitX=0.25;exitY=0.1;exitDx=0;exitDy=0;exitPerimeter=0;entryX=1;entryY=0.5;entryDx=0;entryDy=0;endArrow=none;endFill=0;" edge="1" parent="1" source="wmsQ8IffGXWZt_zpJrCV-52" target="wmsQ8IffGXWZt_zpJrCV-53">
          <mxGeometry relative="1" as="geometry" />
        </mxCell>
        <mxCell id="wmsQ8IffGXWZt_zpJrCV-52" value="Оборудование" style="shape=umlActor;verticalLabelPosition=bottom;verticalAlign=top;html=1;outlineConnect=0;" vertex="1" parent="1">
          <mxGeometry x="990" y="630" width="30" height="50" as="geometry" />
        </mxCell>
        <mxCell id="wmsQ8IffGXWZt_zpJrCV-53" value="Хранение" style="ellipse;whiteSpace=wrap;html=1;" vertex="1" parent="1">
          <mxGeometry x="827" y="600" width="120" height="80" as="geometry" />
        </mxCell>
        <mxCell id="wmsQ8IffGXWZt_zpJrCV-55" style="rounded=0;orthogonalLoop=1;jettySize=auto;html=1;entryX=0.75;entryY=0.1;entryDx=0;entryDy=0;entryPerimeter=0;endArrow=none;endFill=0;" edge="1" parent="1" source="wmsQ8IffGXWZt_zpJrCV-53" target="wmsQ8IffGXWZt_zpJrCV-51">
          <mxGeometry relative="1" as="geometry" />
        </mxCell>
        <mxCell id="wmsQ8IffGXWZt_zpJrCV-56" style="rounded=0;orthogonalLoop=1;jettySize=auto;html=1;entryX=0.25;entryY=0.1;entryDx=0;entryDy=0;entryPerimeter=0;endArrow=none;endFill=0;" edge="1" parent="1" source="wmsQ8IffGXWZt_zpJrCV-4" target="wmsQ8IffGXWZt_zpJrCV-51">
          <mxGeometry relative="1" as="geometry" />
        </mxCell>
        <mxCell id="wmsQ8IffGXWZt_zpJrCV-64" style="rounded=0;orthogonalLoop=1;jettySize=auto;html=1;exitX=0.75;exitY=0.1;exitDx=0;exitDy=0;exitPerimeter=0;entryX=0;entryY=0.5;entryDx=0;entryDy=0;endArrow=none;endFill=0;" edge="1" parent="1" source="wmsQ8IffGXWZt_zpJrCV-57" target="wmsQ8IffGXWZt_zpJrCV-63">
          <mxGeometry relative="1" as="geometry" />
        </mxCell>
        <mxCell id="wmsQ8IffGXWZt_zpJrCV-57" value="Тренировка" style="shape=umlActor;verticalLabelPosition=bottom;verticalAlign=top;html=1;outlineConnect=0;" vertex="1" parent="1">
          <mxGeometry x="300" y="575" width="30" height="50" as="geometry" />
        </mxCell>
        <mxCell id="wmsQ8IffGXWZt_zpJrCV-67" style="rounded=0;orthogonalLoop=1;jettySize=auto;html=1;exitX=0.25;exitY=0.1;exitDx=0;exitDy=0;exitPerimeter=0;entryX=1;entryY=0.5;entryDx=0;entryDy=0;endArrow=none;endFill=0;" edge="1" parent="1" source="wmsQ8IffGXWZt_zpJrCV-58" target="wmsQ8IffGXWZt_zpJrCV-66">
          <mxGeometry relative="1" as="geometry" />
        </mxCell>
        <mxCell id="wmsQ8IffGXWZt_zpJrCV-58" value="Событие" style="shape=umlActor;verticalLabelPosition=bottom;verticalAlign=top;html=1;outlineConnect=0;" vertex="1" parent="1">
          <mxGeometry x="827" y="980" width="30" height="50" as="geometry" />
        </mxCell>
        <mxCell id="wmsQ8IffGXWZt_zpJrCV-61" value="Где тренировка" style="ellipse;whiteSpace=wrap;html=1;" vertex="1" parent="1">
          <mxGeometry x="590" y="600" width="120" height="80" as="geometry" />
        </mxCell>
        <mxCell id="wmsQ8IffGXWZt_zpJrCV-62" style="rounded=0;orthogonalLoop=1;jettySize=auto;html=1;exitX=0;exitY=0.5;exitDx=0;exitDy=0;entryX=0.75;entryY=0.1;entryDx=0;entryDy=0;entryPerimeter=0;endArrow=none;endFill=0;" edge="1" parent="1" source="wmsQ8IffGXWZt_zpJrCV-61" target="wmsQ8IffGXWZt_zpJrCV-31">
          <mxGeometry relative="1" as="geometry" />
        </mxCell>
        <mxCell id="wmsQ8IffGXWZt_zpJrCV-63" value="Когда тренировка" style="ellipse;whiteSpace=wrap;html=1;" vertex="1" parent="1">
          <mxGeometry x="365" y="530" width="120" height="80" as="geometry" />
        </mxCell>
        <mxCell id="wmsQ8IffGXWZt_zpJrCV-65" style="rounded=0;orthogonalLoop=1;jettySize=auto;html=1;entryX=0.5;entryY=0;entryDx=0;entryDy=0;entryPerimeter=0;endArrow=none;endFill=0;" edge="1" parent="1" source="wmsQ8IffGXWZt_zpJrCV-63" target="wmsQ8IffGXWZt_zpJrCV-31">
          <mxGeometry relative="1" as="geometry" />
        </mxCell>
        <mxCell id="wmsQ8IffGXWZt_zpJrCV-66" value="Кто проводит" style="ellipse;whiteSpace=wrap;html=1;" vertex="1" parent="1">
          <mxGeometry x="630" y="840" width="120" height="80" as="geometry" />
        </mxCell>
        <mxCell id="wmsQ8IffGXWZt_zpJrCV-68" style="rounded=0;orthogonalLoop=1;jettySize=auto;html=1;entryX=0.75;entryY=0.1;entryDx=0;entryDy=0;entryPerimeter=0;endArrow=none;endFill=0;" edge="1" parent="1" source="wmsQ8IffGXWZt_zpJrCV-66" target="wmsQ8IffGXWZt_zpJrCV-1">
          <mxGeometry relative="1" as="geometry" />
        </mxCell>
        <mxCell id="wmsQ8IffGXWZt_zpJrCV-69" value="Где событие" style="ellipse;whiteSpace=wrap;html=1;" vertex="1" parent="1">
          <mxGeometry x="800" y="740" width="120" height="80" as="geometry" />
        </mxCell>
        <mxCell id="wmsQ8IffGXWZt_zpJrCV-70" style="rounded=0;orthogonalLoop=1;jettySize=auto;html=1;entryX=0.5;entryY=0;entryDx=0;entryDy=0;entryPerimeter=0;endArrow=none;endFill=0;" edge="1" parent="1" source="wmsQ8IffGXWZt_zpJrCV-69" target="wmsQ8IffGXWZt_zpJrCV-58">
          <mxGeometry relative="1" as="geometry" />
        </mxCell>
        <mxCell id="wmsQ8IffGXWZt_zpJrCV-71" style="rounded=0;orthogonalLoop=1;jettySize=auto;html=1;entryX=0.75;entryY=0.1;entryDx=0;entryDy=0;entryPerimeter=0;endArrow=none;endFill=0;" edge="1" parent="1" source="wmsQ8IffGXWZt_zpJrCV-69" target="wmsQ8IffGXWZt_zpJrCV-51">
          <mxGeometry relative="1" as="geometry" />
        </mxCell>
        <mxCell id="wmsQ8IffGXWZt_zpJrCV-72" value="Посещение&lt;div&gt;события&lt;/div&gt;" style="ellipse;whiteSpace=wrap;html=1;" vertex="1" parent="1">
          <mxGeometry x="80" y="910" width="120" height="80" as="geometry" />
        </mxCell>
        <mxCell id="wmsQ8IffGXWZt_zpJrCV-73" style="rounded=0;orthogonalLoop=1;jettySize=auto;html=1;entryX=0.25;entryY=0.1;entryDx=0;entryDy=0;entryPerimeter=0;endArrow=none;endFill=0;" edge="1" parent="1" source="wmsQ8IffGXWZt_zpJrCV-72" target="wmsQ8IffGXWZt_zpJrCV-58">
          <mxGeometry relative="1" as="geometry" />
        </mxCell>
        <mxCell id="wmsQ8IffGXWZt_zpJrCV-75" value="Оплата&lt;div&gt;затрат&lt;/div&gt;" style="ellipse;whiteSpace=wrap;html=1;" vertex="1" parent="1">
          <mxGeometry x="1070" y="680" width="120" height="80" as="geometry" />
        </mxCell>
        <mxCell id="wmsQ8IffGXWZt_zpJrCV-76" style="rounded=0;orthogonalLoop=1;jettySize=auto;html=1;entryX=0.5;entryY=0;entryDx=0;entryDy=0;entryPerimeter=0;endArrow=none;endFill=0;" edge="1" parent="1" source="wmsQ8IffGXWZt_zpJrCV-75" target="wmsQ8IffGXWZt_zpJrCV-58">
          <mxGeometry relative="1" as="geometry" />
        </mxCell>
        <mxCell id="wmsQ8IffGXWZt_zpJrCV-77" style="rounded=0;orthogonalLoop=1;jettySize=auto;html=1;entryX=0.75;entryY=0.1;entryDx=0;entryDy=0;entryPerimeter=0;endArrow=none;endFill=0;" edge="1" parent="1" source="wmsQ8IffGXWZt_zpJrCV-75" target="wmsQ8IffGXWZt_zpJrCV-39">
          <mxGeometry relative="1" as="geometry" />
        </mxCell>
      </root>
    </mxGraphModel>
  </diagram>
</mxfile>
